<svg width="50" height="50" viewBox="0 0 50 50" fill="none" xmlns="http://www.w3.org/2000/svg">
<path d="M37.5 10.4376L37.5208 10.4147M25 33.3334C23.3424 33.3334 21.7527 32.6749 20.5806 31.5028C19.4085 30.3307 18.75 28.741 18.75 27.0834M43.75 8.33342V41.6668C43.75 42.7718 43.311 43.8316 42.5296 44.613C41.7482 45.3944 40.6884 45.8334 39.5833 45.8334H10.4167C9.3116 45.8334 8.25179 45.3944 7.47039 44.613C6.68899 43.8316 6.25 42.7718 6.25 41.6668V8.33342C6.25 7.22835 6.68899 6.16854 7.47039 5.38714C8.25179 4.60573 9.3116 4.16675 10.4167 4.16675H39.5833C40.6884 4.16675 41.7482 4.60573 42.5296 5.38714C43.311 6.16854 43.75 7.22835 43.75 8.33342ZM25 39.5834C28.3152 39.5834 31.4946 38.2665 33.8388 35.9223C36.183 33.578 37.5 30.3986 37.5 27.0834C37.5 23.7682 36.183 20.5888 33.8388 18.2446C31.4946 15.9004 28.3152 14.5834 25 14.5834C21.6848 14.5834 18.5054 15.9004 16.1612 18.2446C13.817 20.5888 12.5 23.7682 12.5 27.0834C12.5 30.3986 13.817 33.578 16.1612 35.9223C18.5054 38.2665 21.6848 39.5834 25 39.5834Z" stroke="#6921FC" stroke-width="1.5" stroke-linecap="round" stroke-linejoin="round"/>
</svg>
