<svg width="50" height="50" viewBox="0 0 50 50" fill="none" xmlns="http://www.w3.org/2000/svg">
<path d="M16.6667 20.8334H33.3333M14.5833 29.1667H16.6667M33.3333 29.1667H35.4167M6.25 37.5V23.7709C6.25043 23.2071 6.36524 22.6494 6.5875 22.1313L11.4187 10.8605C11.7397 10.1107 12.2735 9.47164 12.9542 9.02243C13.6349 8.57322 14.4324 8.33364 15.2479 8.33337H34.7521C35.5674 8.33346 36.3647 8.57274 37.0454 9.02156C37.726 9.47038 38.26 10.109 38.5812 10.8584L43.4146 22.1292C43.6367 22.6487 43.7508 23.208 43.75 23.773V37.5M6.25 37.5V42.5C6.25 42.8316 6.3817 43.1495 6.61612 43.3839C6.85054 43.6183 7.16848 43.75 7.5 43.75H13.3333C13.6649 43.75 13.9828 43.6183 14.2172 43.3839C14.4516 43.1495 14.5833 42.8316 14.5833 42.5V37.5M6.25 37.5H14.5833M43.75 37.5V42.5C43.75 42.8316 43.6183 43.1495 43.3839 43.3839C43.1495 43.6183 42.8315 43.75 42.5 43.75H36.6667C36.5025 43.75 36.34 43.7177 36.1883 43.6549C36.0367 43.5921 35.8989 43.5 35.7828 43.3839C35.6667 43.2679 35.5746 43.1301 35.5118 42.9784C35.449 42.8267 35.4167 42.6642 35.4167 42.5V37.5M43.75 37.5H35.4167M14.5833 37.5H35.4167" stroke="#6921FC" stroke-width="1.5" stroke-linecap="round"/>
</svg>
