<svg width="50" height="50" viewBox="0 0 50 50" fill="none" xmlns="http://www.w3.org/2000/svg">
<path d="M4.16663 32.2918V5.41675C4.16663 5.08523 4.29832 4.76729 4.53274 4.53286C4.76716 4.29844 5.08511 4.16675 5.41663 4.16675H44.5833C44.9148 4.16675 45.2328 4.29844 45.4672 4.53286C45.7016 4.76729 45.8333 5.08523 45.8333 5.41675V32.2918M4.16663 32.2918V36.2501C4.16663 36.5816 4.29832 36.8995 4.53274 37.134C4.76716 37.3684 5.08511 37.5001 5.41663 37.5001H44.5833C44.9148 37.5001 45.2328 37.3684 45.4672 37.134C45.7016 36.8995 45.8333 36.5816 45.8333 36.2501V32.2918M4.16663 32.2918H45.8333M18.75 45.8334H21.875M21.875 45.8334V37.5001M21.875 45.8334H28.125M28.125 45.8334H31.25M28.125 45.8334V37.5001" stroke="#6921FC" stroke-width="1.5" stroke-linecap="round" stroke-linejoin="round"/>
</svg>
