<svg width="50" height="50" viewBox="0 0 50 50" fill="none" xmlns="http://www.w3.org/2000/svg">
<path d="M34.375 43.75H38.8938C39.4943 43.7498 40.0878 43.6197 40.6334 43.3687C41.179 43.1177 41.664 42.7518 42.055 42.2959C42.4459 41.84 42.7338 41.305 42.8987 40.7274C43.0636 40.1499 43.1017 39.5436 43.0104 38.95L40.1271 20.2C39.9758 19.2162 39.4773 18.319 38.7218 17.6709C37.9663 17.0228 37.0037 16.6665 36.0083 16.6667H13.9917C12.9963 16.6665 12.0337 17.0228 11.2782 17.6709C10.5227 18.319 10.0242 19.2162 9.87292 20.2L6.9875 38.95C6.89619 39.5438 6.93435 40.1503 7.09939 40.7279C7.26442 41.3056 7.55242 41.8407 7.94364 42.2967C8.33486 42.7526 8.82004 43.1185 9.36592 43.3694C9.91181 43.6202 10.5055 43.7501 11.1063 43.75H15.625M25 25V39.5833M25 39.5833L31.25 33.3333M25 39.5833L18.75 33.3333M29.1667 10.4167C29.1667 9.3116 28.7277 8.25179 27.9463 7.47039C27.1649 6.68899 26.1051 6.25 25 6.25C23.8949 6.25 22.8351 6.68899 22.0537 7.47039C21.2723 8.25179 20.8333 9.3116 20.8333 10.4167" stroke="#6921FC" stroke-width="1.5" stroke-linecap="round" stroke-linejoin="round"/>
</svg>
