<svg width="50" height="50" viewBox="0 0 50 50" fill="none" xmlns="http://www.w3.org/2000/svg">
<path d="M35.4167 27.1042L35.4375 27.0812M14.5833 35.4167H35.4167M12.5 20.8333V7.5C12.5 7.16848 12.6317 6.85054 12.8661 6.61612C13.1005 6.3817 13.4185 6.25 13.75 6.25H36.25C36.5815 6.25 36.8995 6.3817 37.1339 6.61612C37.3683 6.85054 37.5 7.16848 37.5 7.5V20.8333M43.75 42.5V29.1667C43.75 26.9565 42.872 24.8369 41.3092 23.2741C39.7464 21.7113 37.6268 20.8333 35.4167 20.8333H14.5833C12.3732 20.8333 10.2536 21.7113 8.69078 23.2741C7.12797 24.8369 6.25 26.9565 6.25 29.1667V42.5C6.25 42.8315 6.3817 43.1495 6.61612 43.3839C6.85054 43.6183 7.16848 43.75 7.5 43.75H42.5C42.8315 43.75 43.1495 43.6183 43.3839 43.3839C43.6183 43.1495 43.75 42.8315 43.75 42.5V42.5Z" stroke="#6921FC" stroke-width="1.5" stroke-linecap="round" stroke-linejoin="round"/>
</svg>
