<svg width="50" height="50" viewBox="0 0 50 50" fill="none" xmlns="http://www.w3.org/2000/svg">
<path d="M39.5834 25L39.9889 25.6309C40.2036 25.4929 40.3334 25.2552 40.3334 25H39.5834ZM10.0111 43.1191C9.66271 43.3431 9.56183 43.8071 9.78582 44.1556C10.0098 44.504 10.4738 44.6049 10.8223 44.3809L10.0111 43.1191ZM11.1667 6.25C11.1667 5.83579 10.8309 5.5 10.4167 5.5C10.0025 5.5 9.66671 5.83579 9.66671 6.25H11.1667ZM10.4167 25H9.66671C9.66671 25.2552 9.79647 25.4929 10.0111 25.6309L10.4167 25ZM40.3334 6.25C40.3334 5.83579 39.9976 5.5 39.5834 5.5C39.1692 5.5 38.8334 5.83579 38.8334 6.25H40.3334ZM39.1778 44.3809C39.5262 44.6049 39.9903 44.504 40.2143 44.1556C40.4382 43.8071 40.3374 43.3431 39.9889 43.1191L39.1778 44.3809ZM8.33337 24.25C7.91916 24.25 7.58337 24.5858 7.58337 25C7.58337 25.4142 7.91916 25.75 8.33337 25.75V24.25ZM41.6667 25.75C42.0809 25.75 42.4167 25.4142 42.4167 25C42.4167 24.5858 42.0809 24.25 41.6667 24.25V25.75ZM39.1778 24.3691L10.0111 43.1191L10.8223 44.3809L39.9889 25.6309L39.1778 24.3691ZM9.66671 6.25V25H11.1667V6.25H9.66671ZM38.8334 6.25V25H40.3334V6.25H38.8334ZM10.0111 25.6309L39.1778 44.3809L39.9889 43.1191L10.8223 24.3691L10.0111 25.6309ZM8.33337 25.75H41.6667V24.25H8.33337V25.75ZM10.4167 9.08333H39.5834V7.58333H10.4167V9.08333ZM10.4167 15.3333H39.5834V13.8333H10.4167V15.3333Z" fill="#6921FC"/>
</svg>
