<svg width="50" height="50" viewBox="0 0 50 50" fill="none" xmlns="http://www.w3.org/2000/svg">
<path d="M25 33.3541L25.0209 33.3312M14.5834 40.4166V9.58325C14.5834 9.25173 14.7151 8.93379 14.9495 8.69937C15.1839 8.46495 15.5019 8.33325 15.8334 8.33325H34.1667C34.3309 8.33325 34.4934 8.36558 34.6451 8.4284C34.7967 8.49122 34.9345 8.5833 35.0506 8.69937C35.1667 8.81544 35.2587 8.95324 35.3216 9.1049C35.3844 9.25655 35.4167 9.4191 35.4167 9.58325V40.4166C35.4167 40.5807 35.3844 40.7433 35.3216 40.8949C35.2587 41.0466 35.1667 41.1844 35.0506 41.3005C34.9345 41.4165 34.7967 41.5086 34.6451 41.5714C34.4934 41.6343 34.3309 41.6666 34.1667 41.6666H15.8334C15.5019 41.6666 15.1839 41.5349 14.9495 41.3005C14.7151 41.066 14.5834 40.7481 14.5834 40.4166Z" stroke="#6921FC" stroke-width="1.5" stroke-linecap="round"/>
</svg>
