<svg width="50" height="50" viewBox="0 0 50 50" fill="none" xmlns="http://www.w3.org/2000/svg">
<path d="M8.33329 28.125V27.0834C8.33329 16.7292 15.7958 8.33337 25 8.33337C34.2041 8.33337 41.6666 16.7292 41.6666 27.0834V28.125M8.33329 28.125L7.32288 28.3792C6.42146 28.6045 5.62122 29.1247 5.04934 29.857C4.47747 30.5893 4.16677 31.4917 4.16663 32.4209V36.3313C4.16665 37.2602 4.47705 38.1624 5.04852 38.8947C5.62 39.6269 6.41977 40.1472 7.32079 40.373L10.9458 41.2792C11.1301 41.3255 11.3226 41.3291 11.5085 41.2897C11.6945 41.2504 11.869 41.1692 12.0188 41.0523C12.1687 40.9354 12.2899 40.7859 12.3733 40.6151C12.4566 40.4443 12.5 40.2568 12.5 40.0667V28.6834C12.5 28.4933 12.4566 28.3058 12.3733 28.135C12.2899 27.9642 12.1687 27.8147 12.0188 27.6978C11.869 27.5808 11.6945 27.4997 11.5085 27.4603C11.3226 27.421 11.1301 27.4246 10.9458 27.4709L8.33329 28.125ZM41.6666 28.125L42.677 28.3792C43.5785 28.6045 44.3787 29.1247 44.9506 29.857C45.5225 30.5893 45.8332 31.4917 45.8333 32.4209V36.3313C45.8332 37.2604 45.5225 38.1629 44.9506 38.8952C44.3787 39.6275 43.5785 40.1476 42.677 40.373L39.052 41.2792C38.8678 41.3251 38.6756 41.3284 38.4899 41.2889C38.3043 41.2494 38.13 41.1682 37.9804 41.0513C37.8308 40.9344 37.7098 40.7851 37.6266 40.6145C37.5433 40.4439 37.5 40.2565 37.5 40.0667V28.6834C37.5 28.4935 37.5433 28.3062 37.6266 28.1356C37.7098 27.965 37.8308 27.8156 37.9804 27.6988C38.13 27.5819 38.3043 27.5007 38.4899 27.4612C38.6756 27.4217 38.8678 27.425 39.052 27.4709L41.6666 28.125Z" stroke="#6921FC" stroke-width="1.5" stroke-linecap="round" stroke-linejoin="round"/>
</svg>
