<svg width="19" height="20" viewBox="0 0 19 20" fill="none" xmlns="http://www.w3.org/2000/svg">
<path d="M9.41177 0C9.09975 0 8.80051 0.123949 8.57987 0.344581C8.35924 0.565212 8.23529 0.864451 8.23529 1.17647V18.8235C8.23529 19.1355 8.35924 19.4348 8.57987 19.6554C8.80051 19.8761 9.09975 20 9.41177 20C9.72378 20 10.023 19.8761 10.2437 19.6554C10.4643 19.4348 10.5882 19.1355 10.5882 18.8235V1.17647C10.5882 0.864451 10.4643 0.565212 10.2437 0.344581C10.023 0.123949 9.72378 0 9.41177 0ZM17.6471 9.41177C17.335 9.41177 17.0358 9.53571 16.8152 9.75635C16.5945 9.97698 16.4706 10.2762 16.4706 10.5882V18.8235C16.4706 19.1355 16.5945 19.4348 16.8152 19.6554C17.0358 19.8761 17.335 20 17.6471 20C17.9591 20 18.2583 19.8761 18.479 19.6554C18.6996 19.4348 18.8235 19.1355 18.8235 18.8235V10.5882C18.8235 10.2762 18.6996 9.97698 18.479 9.75635C18.2583 9.53571 17.9591 9.41177 17.6471 9.41177ZM1.17647 4.70588C0.864451 4.70588 0.565212 4.82983 0.344581 5.05046C0.123949 5.27109 0 5.57033 0 5.88235V18.8235C0 19.1355 0.123949 19.4348 0.344581 19.6554C0.565212 19.8761 0.864451 20 1.17647 20C1.48849 20 1.78773 19.8761 2.00836 19.6554C2.22899 19.4348 2.35294 19.1355 2.35294 18.8235V5.88235C2.35294 5.57033 2.22899 5.27109 2.00836 5.05046C1.78773 4.82983 1.48849 4.70588 1.17647 4.70588Z" fill="#A8A8A8"/>
</svg>
