<svg width="16" height="20" viewBox="0 0 16 20" fill="none" xmlns="http://www.w3.org/2000/svg">
<path d="M1.27558 20C0.981872 20 0.700195 19.8833 0.492514 19.6756C0.284833 19.468 0.168159 19.1863 0.168159 18.8926L0.00204553 2.65781C-0.0112894 2.32818 0.0406757 1.99916 0.154952 1.68969C0.269228 1.38022 0.44356 1.09639 0.667922 0.85453C0.892284 0.612672 1.16225 0.417557 1.46229 0.280407C1.76233 0.143257 2.08652 0.0667792 2.41622 0.0553709L13.0364 0C13.3665 0.00576614 13.6923 0.0765143 13.9951 0.208203C14.2979 0.339892 14.5717 0.529942 14.8011 0.767498C15.0304 1.00505 15.2107 1.28546 15.3316 1.5927C15.4526 1.89995 15.5118 2.228 15.5059 2.55814L15.661 18.7929C15.6629 18.987 15.6137 19.1781 15.5185 19.3472C15.4233 19.5163 15.2853 19.6574 15.1183 19.7564C14.95 19.8536 14.759 19.9047 14.5646 19.9047C14.3702 19.9047 14.1793 19.8536 14.0109 19.7564L7.69861 16.2569L1.84036 19.8339C1.66689 19.9308 1.47389 19.9875 1.27558 20ZM7.65432 13.8538C7.84674 13.8542 8.0364 13.8997 8.20803 13.9867L13.424 16.8771L13.2911 2.53599C13.2911 2.31451 13.1471 2.15947 13.0585 2.17054L2.42729 2.27021C2.3387 2.27021 2.21688 2.41418 2.21688 2.63566L2.34978 16.9214L7.08953 14.0089C7.26167 13.9103 7.45598 13.857 7.65432 13.8538Z" fill="#A8A8A8"/>
</svg>
