<svg width="16" height="20" viewBox="0 0 16 20" fill="none" xmlns="http://www.w3.org/2000/svg">
<path d="M7.77778 8.88889C8.6568 8.88889 9.51609 8.62823 10.247 8.13987C10.9779 7.6515 11.5475 6.95738 11.8839 6.14526C12.2203 5.33315 12.3083 4.43952 12.1368 3.57738C11.9653 2.71524 11.542 1.92332 10.9205 1.30175C10.2989 0.680183 9.50698 0.256891 8.64484 0.0854007C7.78271 -0.0860891 6.88908 0.00192569 6.07696 0.338315C5.26485 0.674705 4.57072 1.24436 4.08236 1.97525C3.594 2.70613 3.33333 3.56542 3.33333 4.44445C3.33333 5.62319 3.80159 6.75365 4.63508 7.58714C5.46858 8.42064 6.59904 8.88889 7.77778 8.88889ZM7.77778 2.22222C8.21729 2.22222 8.64693 2.35256 9.01238 2.59674C9.37782 2.84092 9.66265 3.18798 9.83084 3.59404C9.99904 4.0001 10.043 4.44691 9.9573 4.87798C9.87155 5.30905 9.65991 5.70501 9.34912 6.01579C9.03834 6.32658 8.64238 6.53822 8.21131 6.62397C7.78024 6.70971 7.33343 6.66571 6.92737 6.49751C6.52131 6.32932 6.17425 6.04449 5.93007 5.67905C5.68589 5.3136 5.55555 4.88396 5.55555 4.44445C5.55555 3.85508 5.78968 3.28984 6.20643 2.8731C6.62318 2.45635 7.18841 2.22222 7.77778 2.22222ZM7.77778 11.1111C5.71498 11.1111 3.73667 11.9306 2.27806 13.3892C0.819442 14.8478 0 16.8261 0 18.8889C0 19.1836 0.117063 19.4662 0.325437 19.6746C0.533811 19.8829 0.816426 20 1.11111 20C1.4058 20 1.68841 19.8829 1.89678 19.6746C2.10516 19.4662 2.22222 19.1836 2.22222 18.8889C2.22222 17.4155 2.80754 16.0024 3.84941 14.9605C4.89127 13.9187 6.30435 13.3333 7.77778 13.3333C9.2512 13.3333 10.6643 13.9187 11.7061 14.9605C12.748 16.0024 13.3333 17.4155 13.3333 18.8889C13.3333 19.1836 13.4504 19.4662 13.6588 19.6746C13.8671 19.8829 14.1498 20 14.4444 20C14.7391 20 15.0217 19.8829 15.2301 19.6746C15.4385 19.4662 15.5556 19.1836 15.5556 18.8889C15.5556 16.8261 14.7361 14.8478 13.2775 13.3892C11.8189 11.9306 9.84057 11.1111 7.77778 11.1111Z" fill="#A8A8A8"/>
</svg>
