<svg width="162" height="48" viewBox="0 0 162 48" fill="none" xmlns="http://www.w3.org/2000/svg">
<path d="M26.3438 3.32812L6.65625 32.4375H25.875V36H0.773438V34.8984L20.2969 5.95312H2.34375V2.39062H26.3438V3.32812ZM31.7812 36V2.39062H41.3438C44.25 2.39062 46.5547 3.10156 48.2578 4.52344C49.9609 5.94531 50.8125 7.79688 50.8125 10.0781C50.8125 11.9844 50.2969 13.6406 49.2656 15.0469C48.2344 16.4531 46.8125 17.4531 45 18.0469V18.1406C47.2656 18.4062 49.0781 19.2656 50.4375 20.7188C51.7969 22.1562 52.4766 24.0312 52.4766 26.3438C52.4766 29.2188 51.4453 31.5469 49.3828 33.3281C47.3203 35.1094 44.7188 36 41.5781 36H31.7812ZM35.7188 5.95312V16.8047H39.75C41.9062 16.8047 43.6016 16.2891 44.8359 15.2578C46.0703 14.2109 46.6875 12.7422 46.6875 10.8516C46.6875 7.58594 44.5391 5.95312 40.2422 5.95312H35.7188ZM35.7188 20.3438V32.4375H41.0625C43.375 32.4375 45.1641 31.8906 46.4297 30.7969C47.7109 29.7031 48.3516 28.2031 48.3516 26.2969C48.3516 22.3281 45.6484 20.3438 40.2422 20.3438H35.7188ZM57.7266 34.6406V30C58.2578 30.4688 58.8906 30.8906 59.625 31.2656C60.375 31.6406 61.1562 31.9609 61.9688 32.2266C62.7969 32.4766 63.625 32.6719 64.4531 32.8125C65.2812 32.9531 66.0469 33.0234 66.75 33.0234C69.1719 33.0234 70.9766 32.5781 72.1641 31.6875C73.3672 30.7812 73.9688 29.4844 73.9688 27.7969C73.9688 26.8906 73.7656 26.1016 73.3594 25.4297C72.9688 24.7578 72.4219 24.1484 71.7188 23.6016C71.0156 23.0391 70.1797 22.5078 69.2109 22.0078C68.2578 21.4922 67.2266 20.9531 66.1172 20.3906C64.9453 19.7969 63.8516 19.1953 62.8359 18.5859C61.8203 17.9766 60.9375 17.3047 60.1875 16.5703C59.4375 15.8359 58.8438 15.0078 58.4062 14.0859C57.9844 13.1484 57.7734 12.0547 57.7734 10.8047C57.7734 9.27344 58.1094 7.94531 58.7812 6.82031C59.4531 5.67969 60.3359 4.74219 61.4297 4.00781C62.5234 3.27344 63.7656 2.72656 65.1562 2.36719C66.5625 2.00781 67.9922 1.82812 69.4453 1.82812C72.7578 1.82812 75.1719 2.22656 76.6875 3.02344V7.45312C74.7031 6.07812 72.1562 5.39062 69.0469 5.39062C68.1875 5.39062 67.3281 5.48438 66.4688 5.67188C65.6094 5.84375 64.8438 6.13281 64.1719 6.53906C63.5 6.94531 62.9531 7.46875 62.5312 8.10938C62.1094 8.75 61.8984 9.53125 61.8984 10.4531C61.8984 11.3125 62.0547 12.0547 62.3672 12.6797C62.6953 13.3047 63.1719 13.875 63.7969 14.3906C64.4219 14.9062 65.1797 15.4062 66.0703 15.8906C66.9766 16.375 68.0156 16.9062 69.1875 17.4844C70.3906 18.0781 71.5312 18.7031 72.6094 19.3594C73.6875 20.0156 74.6328 20.7422 75.4453 21.5391C76.2578 22.3359 76.8984 23.2188 77.3672 24.1875C77.8516 25.1562 78.0938 26.2656 78.0938 27.5156C78.0938 29.1719 77.7656 30.5781 77.1094 31.7344C76.4688 32.875 75.5938 33.8047 74.4844 34.5234C73.3906 35.2422 72.125 35.7578 70.6875 36.0703C69.25 36.3984 67.7344 36.5625 66.1406 36.5625C65.6094 36.5625 64.9531 36.5156 64.1719 36.4219C63.3906 36.3438 62.5938 36.2188 61.7812 36.0469C60.9688 35.8906 60.1953 35.6953 59.4609 35.4609C58.7422 35.2109 58.1641 34.9375 57.7266 34.6406ZM104.203 36H100.359V22.1719C100.359 17.1719 98.5 14.6719 94.7812 14.6719C92.9062 14.6719 91.3281 15.3984 90.0469 16.8516C88.7656 18.2891 88.125 20.1406 88.125 22.4062V36H84.2812V0.46875H88.125V15.9844H88.2188C90.0625 12.9531 92.6875 11.4375 96.0938 11.4375C101.5 11.4375 104.203 14.6953 104.203 21.2109V36ZM121.5 36.5625C117.953 36.5625 115.117 35.4453 112.992 33.2109C110.883 30.9609 109.828 27.9844 109.828 24.2812C109.828 20.25 110.93 17.1016 113.133 14.8359C115.336 12.5703 118.312 11.4375 122.062 11.4375C125.641 11.4375 128.43 12.5391 130.43 14.7422C132.445 16.9453 133.453 20 133.453 23.9062C133.453 27.7344 132.367 30.8047 130.195 33.1172C128.039 35.4141 125.141 36.5625 121.5 36.5625ZM121.781 14.6719C119.312 14.6719 117.359 15.5156 115.922 17.2031C114.484 18.875 113.766 21.1875 113.766 24.1406C113.766 26.9844 114.492 29.2266 115.945 30.8672C117.398 32.5078 119.344 33.3281 121.781 33.3281C124.266 33.3281 126.172 32.5234 127.5 30.9141C128.844 29.3047 129.516 27.0156 129.516 24.0469C129.516 21.0469 128.844 18.7344 127.5 17.1094C126.172 15.4844 124.266 14.6719 121.781 14.6719ZM143.531 32.5312H143.438V47.0391H139.594V12H143.438V16.2188H143.531C145.422 13.0312 148.188 11.4375 151.828 11.4375C154.922 11.4375 157.336 12.5156 159.07 14.6719C160.805 16.8125 161.672 19.6875 161.672 23.2969C161.672 27.3125 160.695 30.5312 158.742 32.9531C156.789 35.3594 154.117 36.5625 150.727 36.5625C147.617 36.5625 145.219 35.2188 143.531 32.5312ZM143.438 22.8516V26.2031C143.438 28.1875 144.078 29.875 145.359 31.2656C146.656 32.6406 148.297 33.3281 150.281 33.3281C152.609 33.3281 154.43 32.4375 155.742 30.6562C157.07 28.875 157.734 26.3984 157.734 23.2266C157.734 20.5547 157.117 18.4609 155.883 16.9453C154.648 15.4297 152.977 14.6719 150.867 14.6719C148.633 14.6719 146.836 15.4531 145.477 17.0156C144.117 18.5625 143.438 20.5078 143.438 22.8516Z" fill="#6921FC"/>
</svg>
